<svg width="180" height="163" viewBox="0 0 180 163" fill="none" xmlns="http://www.w3.org/2000/svg">
<g clip-path="url(#clip0_316_40311)">
<rect x="53.6882" y="35.5016" width="87.5" height="122.5" rx="8.75" transform="rotate(2.5 53.6882 35.5016)" fill="#F1F3F5" stroke="#CED4DA" stroke-width="2.5"/>
<rect x="1.66956" y="28.1748" width="92.5" height="127.5" rx="11.25" transform="rotate(-7.5 1.66956 28.1748)" fill="#FAFAFA" stroke="#CED4DA" stroke-width="2.5"/>
<path d="M4.37753 39.1654C3.65665 33.6898 7.51112 28.6666 12.9867 27.9457L82.3879 18.8089C87.8635 18.088 92.8867 21.9425 93.6076 27.4181L96.0549 46.0077L6.82489 57.755L4.37753 39.1654Z" fill="#E9ECEF"/>
<rect x="111.708" y="21.251" width="3.75" height="12.5" rx="1.875" transform="rotate(82.5 111.708 21.251)" fill="#CED4DA"/>
<rect x="77.4617" y="0.543945" width="3.75" height="12.5" rx="1.875" transform="rotate(-7.5 77.4617 0.543945)" fill="#CED4DA"/>
<rect x="99.4338" y="3.95605" width="3.75" height="12.5" rx="1.875" transform="rotate(37.5 99.4338 3.95605)" fill="#CED4DA"/>
<rect x="16.1526" y="61.5693" width="72.5" height="5" rx="2.5" transform="rotate(-7.5 16.1526 61.5693)" fill="#DEE2E6"/>
<rect x="19.4158" y="86.3555" width="72.5" height="5" rx="2.5" transform="rotate(-7.5 19.4158 86.3555)" fill="#DEE2E6"/>
<rect x="22.679" y="111.142" width="72.5" height="5" rx="2.5" transform="rotate(-7.5 22.679 111.142)" fill="#DEE2E6"/>
<rect x="17.4575" y="71.4834" width="26.25" height="5" rx="2.5" transform="rotate(-7.5 17.4575 71.4834)" fill="#E9ECEF"/>
<rect x="20.7209" y="96.2695" width="26.25" height="5" rx="2.5" transform="rotate(-7.5 20.7209 96.2695)" fill="#E9ECEF"/>
<rect x="23.9841" y="121.056" width="26.25" height="5" rx="2.5" transform="rotate(-7.5 23.9841 121.056)" fill="#E9ECEF"/>
</g>
<defs>
<clipPath id="clip0_316_40311">
<rect width="180" height="163" fill="white"/>
</clipPath>
</defs>
</svg>
