<svg width="1800" height="112" viewBox="0 0 1800 112" fill="none" xmlns="http://www.w3.org/2000/svg">
<g clip-path="url(#clip0_66_23316)">
<path d="M0 8C0 3.58172 3.58172 0 8 0H1792C1796.42 0 1800 3.58172 1800 8V104C1800 108.418 1796.42 112 1792 112H7.99996C3.58168 112 0 108.418 0 104V8Z" fill="url(#paint0_radial_66_23316)"/>
<g style="mix-blend-mode:multiply" opacity="0.75" filter="url(#filter0_i_66_23316)">
<ellipse cx="771" cy="596" rx="692" ry="707" transform="rotate(90 771 596)" fill="white"/>
</g>
<g style="mix-blend-mode:multiply" opacity="0.75" filter="url(#filter1_i_66_23316)">
<path d="M1076.84 1568.38C615.588 1568.38 241.672 1202.29 241.672 750.689C241.672 299.092 615.588 -67 1076.84 -67C1538.08 -67 1912 299.092 1912 750.689C1912 1202.29 1538.08 1568.38 1076.84 1568.38Z" fill="white"/>
</g>
<path d="M34.456 49.144C34.984 49.144 35.416 49.104 35.752 49.024C36.104 48.928 36.384 48.808 36.592 48.664C36.8 48.504 36.944 48.32 37.024 48.112C37.104 47.904 37.144 47.672 37.144 47.416C37.144 46.872 36.888 46.424 36.376 46.072C35.864 45.704 34.984 45.312 33.736 44.896C33.192 44.704 32.648 44.488 32.104 44.248C31.56 43.992 31.072 43.68 30.64 43.312C30.208 42.928 29.856 42.472 29.584 41.944C29.312 41.4 29.176 40.744 29.176 39.976C29.176 39.208 29.32 38.52 29.608 37.912C29.896 37.288 30.304 36.76 30.832 36.328C31.36 35.896 32 35.568 32.752 35.344C33.504 35.104 34.352 34.984 35.296 34.984C36.416 34.984 37.384 35.104 38.2 35.344C39.016 35.584 39.688 35.848 40.216 36.136L39.136 39.088C38.672 38.848 38.152 38.64 37.576 38.464C37.016 38.272 36.336 38.176 35.536 38.176C34.64 38.176 33.992 38.304 33.592 38.56C33.208 38.8 33.016 39.176 33.016 39.688C33.016 39.992 33.088 40.248 33.232 40.456C33.376 40.664 33.576 40.856 33.832 41.032C34.104 41.192 34.408 41.344 34.744 41.488C35.096 41.616 35.48 41.752 35.896 41.896C36.76 42.216 37.512 42.536 38.152 42.856C38.792 43.16 39.32 43.52 39.736 43.936C40.168 44.352 40.488 44.84 40.696 45.4C40.904 45.96 41.008 46.64 41.008 47.44C41.008 48.992 40.464 50.2 39.376 51.064C38.288 51.912 36.648 52.336 34.456 52.336C33.72 52.336 33.056 52.288 32.464 52.192C31.872 52.112 31.344 52.008 30.88 51.88C30.432 51.752 30.04 51.616 29.704 51.472C29.384 51.328 29.112 51.192 28.888 51.064L29.944 48.088C30.44 48.36 31.048 48.608 31.768 48.832C32.504 49.04 33.4 49.144 34.456 49.144ZM43.0488 45.784C43.0488 44.664 43.2168 43.688 43.5527 42.856C43.9048 42.008 44.3608 41.304 44.9208 40.744C45.4808 40.184 46.1208 39.76 46.8408 39.472C47.5768 39.184 48.3288 39.04 49.0968 39.04C50.8888 39.04 52.3048 39.592 53.3448 40.696C54.3848 41.784 54.9048 43.392 54.9048 45.52C54.9048 45.728 54.8968 45.96 54.8808 46.216C54.8648 46.456 54.8488 46.672 54.8328 46.864H46.7208C46.8008 47.6 47.1448 48.184 47.7528 48.616C48.3608 49.048 49.1768 49.264 50.2008 49.264C50.8568 49.264 51.4968 49.208 52.1208 49.096C52.7608 48.968 53.2808 48.816 53.6808 48.64L54.1608 51.544C53.9688 51.64 53.7128 51.736 53.3928 51.832C53.0728 51.928 52.7128 52.008 52.3128 52.072C51.9288 52.152 51.5128 52.216 51.0648 52.264C50.6168 52.312 50.1688 52.336 49.7208 52.336C48.5848 52.336 47.5928 52.168 46.7448 51.832C45.9128 51.496 45.2168 51.04 44.6568 50.464C44.1128 49.872 43.7048 49.176 43.4328 48.376C43.1768 47.576 43.0488 46.712 43.0488 45.784ZM51.4488 44.416C51.4328 44.112 51.3768 43.816 51.2808 43.528C51.2008 43.24 51.0648 42.984 50.8728 42.76C50.6968 42.536 50.4648 42.352 50.1768 42.208C49.9048 42.064 49.5608 41.992 49.1448 41.992C48.7448 41.992 48.4008 42.064 48.1128 42.208C47.8248 42.336 47.5848 42.512 47.3928 42.736C47.2008 42.96 47.0488 43.224 46.9368 43.528C46.8408 43.816 46.7688 44.112 46.7208 44.416H51.4488ZM62.7044 52.24C61.6644 52.224 60.8164 52.112 60.1604 51.904C59.5204 51.696 59.0084 51.408 58.6244 51.04C58.2564 50.656 58.0004 50.2 57.8564 49.672C57.7284 49.128 57.6644 48.52 57.6644 47.848V33.952L61.2404 33.376V47.128C61.2404 47.448 61.2644 47.736 61.3124 47.992C61.3604 48.248 61.4484 48.464 61.5764 48.64C61.7204 48.816 61.9204 48.96 62.1764 49.072C62.4324 49.184 62.7764 49.256 63.2084 49.288L62.7044 52.24ZM70.4337 49.504C70.7857 49.504 71.1217 49.496 71.4417 49.48C71.7617 49.464 72.0177 49.44 72.2097 49.408V46.696C72.0657 46.664 71.8497 46.632 71.5617 46.6C71.2737 46.568 71.0097 46.552 70.7697 46.552C70.4337 46.552 70.1137 46.576 69.8097 46.624C69.5217 46.656 69.2657 46.728 69.0417 46.84C68.8177 46.952 68.6417 47.104 68.5137 47.296C68.3857 47.488 68.3217 47.728 68.3217 48.016C68.3217 48.576 68.5057 48.968 68.8737 49.192C69.2577 49.4 69.7777 49.504 70.4337 49.504ZM70.1457 39.04C71.2017 39.04 72.0817 39.16 72.7857 39.4C73.4897 39.64 74.0497 39.984 74.4657 40.432C74.8977 40.88 75.2017 41.424 75.3777 42.064C75.5537 42.704 75.6417 43.416 75.6417 44.2V51.64C75.1297 51.752 74.4177 51.88 73.5057 52.024C72.5937 52.184 71.4897 52.264 70.1937 52.264C69.3777 52.264 68.6337 52.192 67.9617 52.048C67.3057 51.904 66.7377 51.672 66.2577 51.352C65.7777 51.016 65.4097 50.584 65.1537 50.056C64.8977 49.528 64.7697 48.88 64.7697 48.112C64.7697 47.376 64.9137 46.752 65.2017 46.24C65.5057 45.728 65.9057 45.32 66.4017 45.016C66.8977 44.712 67.4657 44.496 68.1057 44.368C68.7457 44.224 69.4097 44.152 70.0977 44.152C70.5617 44.152 70.9697 44.176 71.3217 44.224C71.6897 44.256 71.9857 44.304 72.2097 44.368V44.032C72.2097 43.424 72.0257 42.936 71.6577 42.568C71.2897 42.2 70.6497 42.016 69.7377 42.016C69.1297 42.016 68.5297 42.064 67.9377 42.16C67.3457 42.24 66.8337 42.36 66.4017 42.52L65.9457 39.64C66.1537 39.576 66.4097 39.512 66.7137 39.448C67.0337 39.368 67.3777 39.304 67.7457 39.256C68.1137 39.192 68.4977 39.144 68.8977 39.112C69.3137 39.064 69.7297 39.04 70.1457 39.04ZM85.8113 45.304C85.8113 44.152 85.6593 43.336 85.3553 42.856C85.0673 42.376 84.5633 42.136 83.8433 42.136C83.6193 42.136 83.3873 42.152 83.1473 42.184C82.9073 42.2 82.6753 42.224 82.4513 42.256V52H78.8753V39.808C79.1793 39.728 79.5313 39.648 79.9313 39.568C80.3473 39.472 80.7793 39.392 81.2273 39.328C81.6913 39.248 82.1633 39.192 82.6433 39.16C83.1233 39.112 83.5953 39.088 84.0593 39.088C84.9713 39.088 85.7073 39.208 86.2673 39.448C86.8433 39.672 87.3153 39.944 87.6833 40.264C88.1953 39.896 88.7793 39.608 89.4353 39.4C90.1073 39.192 90.7233 39.088 91.2833 39.088C92.2913 39.088 93.1153 39.232 93.7553 39.52C94.4113 39.792 94.9313 40.184 95.3153 40.696C95.6993 41.208 95.9633 41.816 96.1073 42.52C96.2513 43.224 96.3233 44.008 96.3233 44.872V52H92.7473V45.304C92.7473 44.152 92.5953 43.336 92.2913 42.856C92.0033 42.376 91.4993 42.136 90.7793 42.136C90.5873 42.136 90.3153 42.184 89.9633 42.28C89.6273 42.376 89.3473 42.496 89.1233 42.64C89.2353 43.008 89.3073 43.4 89.3393 43.816C89.3713 44.216 89.3873 44.648 89.3873 45.112V52H85.8113V45.304ZM104.395 49.504C104.747 49.504 105.083 49.496 105.403 49.48C105.723 49.464 105.979 49.44 106.171 49.408V46.696C106.027 46.664 105.811 46.632 105.523 46.6C105.235 46.568 104.971 46.552 104.731 46.552C104.395 46.552 104.075 46.576 103.771 46.624C103.483 46.656 103.227 46.728 103.003 46.84C102.779 46.952 102.603 47.104 102.475 47.296C102.347 47.488 102.283 47.728 102.283 48.016C102.283 48.576 102.467 48.968 102.835 49.192C103.219 49.4 103.739 49.504 104.395 49.504ZM104.107 39.04C105.163 39.04 106.043 39.16 106.747 39.4C107.451 39.64 108.011 39.984 108.427 40.432C108.859 40.88 109.163 41.424 109.339 42.064C109.515 42.704 109.603 43.416 109.603 44.2V51.64C109.091 51.752 108.379 51.88 107.467 52.024C106.555 52.184 105.451 52.264 104.155 52.264C103.339 52.264 102.595 52.192 101.923 52.048C101.267 51.904 100.699 51.672 100.219 51.352C99.7386 51.016 99.3706 50.584 99.1146 50.056C98.8586 49.528 98.7306 48.88 98.7306 48.112C98.7306 47.376 98.8746 46.752 99.1626 46.24C99.4666 45.728 99.8666 45.32 100.363 45.016C100.859 44.712 101.427 44.496 102.067 44.368C102.707 44.224 103.371 44.152 104.059 44.152C104.523 44.152 104.931 44.176 105.283 44.224C105.651 44.256 105.947 44.304 106.171 44.368V44.032C106.171 43.424 105.987 42.936 105.619 42.568C105.251 42.2 104.611 42.016 103.699 42.016C103.091 42.016 102.491 42.064 101.899 42.16C101.307 42.24 100.795 42.36 100.363 42.52L99.9066 39.64C100.115 39.576 100.371 39.512 100.675 39.448C100.995 39.368 101.339 39.304 101.707 39.256C102.075 39.192 102.459 39.144 102.859 39.112C103.275 39.064 103.691 39.04 104.107 39.04ZM112.716 36.232L116.292 35.656V39.376H120.588V42.352H116.292V46.792C116.292 47.544 116.42 48.144 116.676 48.592C116.948 49.04 117.484 49.264 118.284 49.264C118.668 49.264 119.06 49.232 119.46 49.168C119.876 49.088 120.252 48.984 120.588 48.856L121.092 51.64C120.66 51.816 120.18 51.968 119.652 52.096C119.124 52.224 118.476 52.288 117.708 52.288C116.732 52.288 115.924 52.16 115.284 51.904C114.644 51.632 114.132 51.264 113.748 50.8C113.364 50.32 113.092 49.744 112.932 49.072C112.788 48.4 112.716 47.656 112.716 46.84V36.232ZM133.25 48.952C133.426 48.968 133.626 48.984 133.85 49C134.09 49 134.37 49 134.69 49C136.562 49 137.946 48.528 138.842 47.584C139.754 46.64 140.21 45.336 140.21 43.672C140.21 41.928 139.778 40.608 138.914 39.712C138.05 38.816 136.682 38.368 134.81 38.368C134.554 38.368 134.29 38.376 134.018 38.392C133.746 38.392 133.49 38.408 133.25 38.44V48.952ZM144.074 43.672C144.074 45.112 143.85 46.368 143.402 47.44C142.954 48.512 142.314 49.4 141.482 50.104C140.666 50.808 139.666 51.336 138.482 51.688C137.298 52.04 135.97 52.216 134.498 52.216C133.826 52.216 133.042 52.184 132.146 52.12C131.25 52.072 130.37 51.96 129.506 51.784V35.584C130.37 35.424 131.266 35.32 132.194 35.272C133.138 35.208 133.946 35.176 134.618 35.176C136.042 35.176 137.33 35.336 138.482 35.656C139.65 35.976 140.65 36.48 141.482 37.168C142.314 37.856 142.954 38.736 143.402 39.808C143.85 40.88 144.074 42.168 144.074 43.672ZM151.785 49.504C152.137 49.504 152.473 49.496 152.793 49.48C153.113 49.464 153.369 49.44 153.561 49.408V46.696C153.417 46.664 153.201 46.632 152.913 46.6C152.625 46.568 152.361 46.552 152.121 46.552C151.785 46.552 151.465 46.576 151.161 46.624C150.873 46.656 150.617 46.728 150.393 46.84C150.169 46.952 149.993 47.104 149.865 47.296C149.737 47.488 149.673 47.728 149.673 48.016C149.673 48.576 149.857 48.968 150.225 49.192C150.609 49.4 151.129 49.504 151.785 49.504ZM151.497 39.04C152.553 39.04 153.433 39.16 154.137 39.4C154.841 39.64 155.401 39.984 155.817 40.432C156.249 40.88 156.553 41.424 156.729 42.064C156.905 42.704 156.993 43.416 156.993 44.2V51.64C156.481 51.752 155.769 51.88 154.857 52.024C153.945 52.184 152.841 52.264 151.545 52.264C150.729 52.264 149.985 52.192 149.313 52.048C148.657 51.904 148.089 51.672 147.609 51.352C147.129 51.016 146.761 50.584 146.505 50.056C146.249 49.528 146.121 48.88 146.121 48.112C146.121 47.376 146.265 46.752 146.553 46.24C146.857 45.728 147.257 45.32 147.753 45.016C148.249 44.712 148.817 44.496 149.457 44.368C150.097 44.224 150.761 44.152 151.449 44.152C151.913 44.152 152.321 44.176 152.673 44.224C153.041 44.256 153.337 44.304 153.561 44.368V44.032C153.561 43.424 153.377 42.936 153.009 42.568C152.641 42.2 152.001 42.016 151.089 42.016C150.481 42.016 149.881 42.064 149.289 42.16C148.697 42.24 148.185 42.36 147.753 42.52L147.297 39.64C147.505 39.576 147.761 39.512 148.065 39.448C148.385 39.368 148.729 39.304 149.097 39.256C149.465 39.192 149.849 39.144 150.249 39.112C150.665 39.064 151.081 39.04 151.497 39.04ZM160.107 36.232L163.683 35.656V39.376H167.979V42.352H163.683V46.792C163.683 47.544 163.811 48.144 164.067 48.592C164.339 49.04 164.875 49.264 165.675 49.264C166.059 49.264 166.451 49.232 166.851 49.168C167.267 49.088 167.643 48.984 167.979 48.856L168.483 51.64C168.051 51.816 167.571 51.968 167.043 52.096C166.515 52.224 165.867 52.288 165.099 52.288C164.123 52.288 163.315 52.16 162.675 51.904C162.035 51.632 161.523 51.264 161.139 50.8C160.755 50.32 160.483 49.744 160.323 49.072C160.179 48.4 160.107 47.656 160.107 46.84V36.232ZM175.246 49.504C175.598 49.504 175.934 49.496 176.254 49.48C176.574 49.464 176.83 49.44 177.022 49.408V46.696C176.878 46.664 176.662 46.632 176.374 46.6C176.086 46.568 175.822 46.552 175.582 46.552C175.246 46.552 174.926 46.576 174.622 46.624C174.334 46.656 174.078 46.728 173.854 46.84C173.63 46.952 173.454 47.104 173.326 47.296C173.198 47.488 173.134 47.728 173.134 48.016C173.134 48.576 173.318 48.968 173.686 49.192C174.07 49.4 174.59 49.504 175.246 49.504ZM174.958 39.04C176.014 39.04 176.894 39.16 177.598 39.4C178.302 39.64 178.862 39.984 179.278 40.432C179.71 40.88 180.014 41.424 180.19 42.064C180.366 42.704 180.454 43.416 180.454 44.2V51.64C179.942 51.752 179.23 51.88 178.318 52.024C177.406 52.184 176.302 52.264 175.006 52.264C174.19 52.264 173.446 52.192 172.774 52.048C172.118 51.904 171.55 51.672 171.07 51.352C170.59 51.016 170.222 50.584 169.966 50.056C169.71 49.528 169.582 48.88 169.582 48.112C169.582 47.376 169.726 46.752 170.014 46.24C170.318 45.728 170.718 45.32 171.214 45.016C171.71 44.712 172.278 44.496 172.918 44.368C173.558 44.224 174.222 44.152 174.91 44.152C175.374 44.152 175.782 44.176 176.134 44.224C176.502 44.256 176.798 44.304 177.022 44.368V44.032C177.022 43.424 176.838 42.936 176.47 42.568C176.102 42.2 175.462 42.016 174.55 42.016C173.942 42.016 173.342 42.064 172.75 42.16C172.158 42.24 171.646 42.36 171.214 42.52L170.758 39.64C170.966 39.576 171.222 39.512 171.526 39.448C171.846 39.368 172.19 39.304 172.558 39.256C172.926 39.192 173.31 39.144 173.71 39.112C174.126 39.064 174.542 39.04 174.958 39.04ZM183.688 39.808C184.296 39.632 185.08 39.472 186.04 39.328C187 39.168 188.008 39.088 189.064 39.088C190.136 39.088 191.024 39.232 191.728 39.52C192.448 39.792 193.016 40.184 193.432 40.696C193.848 41.208 194.144 41.816 194.32 42.52C194.496 43.224 194.584 44.008 194.584 44.872V52H191.008V45.304C191.008 44.152 190.856 43.336 190.552 42.856C190.248 42.376 189.68 42.136 188.848 42.136C188.592 42.136 188.32 42.152 188.032 42.184C187.744 42.2 187.488 42.224 187.264 42.256V52H183.688V39.808ZM200.869 45.28C200.869 47.28 201.677 48.28 203.293 48.28C203.661 48.28 204.005 48.232 204.325 48.136C204.645 48.04 204.917 47.928 205.141 47.8V42.088C204.965 42.056 204.757 42.032 204.517 42.016C204.277 41.984 203.997 41.968 203.677 41.968C202.733 41.968 202.029 42.28 201.565 42.904C201.101 43.528 200.869 44.32 200.869 45.28ZM208.717 50.416C208.717 52.48 208.189 54.008 207.133 55C206.093 56.008 204.477 56.512 202.285 56.512C201.517 56.512 200.749 56.44 199.981 56.296C199.213 56.168 198.501 55.992 197.845 55.768L198.469 52.768C199.029 52.992 199.613 53.168 200.221 53.296C200.845 53.424 201.549 53.488 202.333 53.488C203.357 53.488 204.077 53.264 204.493 52.816C204.925 52.368 205.141 51.792 205.141 51.088V50.632C204.757 50.808 204.357 50.944 203.941 51.04C203.541 51.12 203.101 51.16 202.621 51.16C200.877 51.16 199.541 50.648 198.613 49.624C197.685 48.584 197.221 47.136 197.221 45.28C197.221 44.352 197.365 43.512 197.653 42.76C197.941 41.992 198.357 41.336 198.901 40.792C199.461 40.248 200.141 39.832 200.941 39.544C201.741 39.24 202.645 39.088 203.653 39.088C204.085 39.088 204.525 39.112 204.973 39.16C205.437 39.192 205.893 39.24 206.341 39.304C206.789 39.368 207.213 39.448 207.613 39.544C208.029 39.624 208.397 39.712 208.717 39.808V50.416ZM220.884 45.592C220.884 46.696 221.132 47.584 221.628 48.256C222.124 48.928 222.86 49.264 223.836 49.264C224.156 49.264 224.452 49.256 224.724 49.24C224.996 49.208 225.22 49.176 225.396 49.144V42.64C225.172 42.496 224.876 42.376 224.508 42.28C224.156 42.184 223.796 42.136 223.428 42.136C221.732 42.136 220.884 43.288 220.884 45.592ZM228.972 51.592C228.652 51.688 228.284 51.784 227.868 51.88C227.452 51.96 227.012 52.032 226.548 52.096C226.1 52.16 225.636 52.208 225.156 52.24C224.692 52.288 224.244 52.312 223.812 52.312C222.772 52.312 221.844 52.16 221.028 51.856C220.212 51.552 219.524 51.12 218.964 50.56C218.404 49.984 217.972 49.296 217.668 48.496C217.38 47.68 217.236 46.768 217.236 45.76C217.236 44.736 217.364 43.816 217.62 43C217.876 42.168 218.244 41.464 218.724 40.888C219.204 40.312 219.788 39.872 220.476 39.568C221.18 39.264 221.98 39.112 222.876 39.112C223.372 39.112 223.812 39.16 224.196 39.256C224.596 39.352 224.996 39.488 225.396 39.664V33.952L228.972 33.376V51.592ZM235.897 52H232.321V39.376H235.897V52ZM236.233 35.728C236.233 36.384 236.017 36.904 235.585 37.288C235.169 37.656 234.673 37.84 234.097 37.84C233.521 37.84 233.017 37.656 232.585 37.288C232.169 36.904 231.961 36.384 231.961 35.728C231.961 35.072 232.169 34.56 232.585 34.192C233.017 33.808 233.521 33.616 234.097 33.616C234.673 33.616 235.169 33.808 235.585 34.192C236.017 34.56 236.233 35.072 236.233 35.728ZM256.4 52C256.224 51.424 256.024 50.832 255.8 50.224C255.592 49.616 255.384 49.008 255.176 48.4H248.696C248.488 49.008 248.272 49.616 248.048 50.224C247.84 50.832 247.648 51.424 247.472 52H243.584C244.208 50.208 244.8 48.552 245.36 47.032C245.92 45.512 246.464 44.08 246.992 42.736C247.536 41.392 248.064 40.12 248.576 38.92C249.104 37.704 249.648 36.52 250.208 35.368H253.784C254.328 36.52 254.864 37.704 255.392 38.92C255.92 40.12 256.448 41.392 256.976 42.736C257.52 44.08 258.072 45.512 258.632 47.032C259.192 48.552 259.784 50.208 260.408 52H256.4ZM251.912 39.136C251.832 39.376 251.712 39.704 251.552 40.12C251.392 40.536 251.208 41.016 251 41.56C250.792 42.104 250.56 42.704 250.304 43.36C250.064 44.016 249.816 44.704 249.56 45.424H254.288C254.032 44.704 253.784 44.016 253.544 43.36C253.304 42.704 253.072 42.104 252.848 41.56C252.64 41.016 252.456 40.536 252.296 40.12C252.136 39.704 252.008 39.376 251.912 39.136ZM270.409 45.784C270.409 44.68 270.161 43.8 269.665 43.144C269.169 42.472 268.433 42.136 267.457 42.136C267.137 42.136 266.841 42.152 266.569 42.184C266.297 42.2 266.073 42.224 265.897 42.256V48.712C266.121 48.856 266.409 48.976 266.761 49.072C267.129 49.168 267.497 49.216 267.865 49.216C269.561 49.216 270.409 48.072 270.409 45.784ZM274.057 45.688C274.057 46.664 273.937 47.552 273.697 48.352C273.457 49.152 273.105 49.84 272.641 50.416C272.177 50.992 271.601 51.44 270.913 51.76C270.225 52.08 269.433 52.24 268.537 52.24C268.041 52.24 267.577 52.192 267.145 52.096C266.713 52 266.297 51.864 265.897 51.688V56.44H262.321V39.808C262.641 39.712 263.009 39.624 263.425 39.544C263.841 39.448 264.273 39.368 264.721 39.304C265.185 39.24 265.649 39.192 266.113 39.16C266.593 39.112 267.049 39.088 267.481 39.088C268.521 39.088 269.449 39.248 270.265 39.568C271.081 39.872 271.769 40.312 272.329 40.888C272.889 41.448 273.313 42.136 273.601 42.952C273.905 43.768 274.057 44.68 274.057 45.688ZM281.845 52.24C280.805 52.224 279.957 52.112 279.301 51.904C278.661 51.696 278.149 51.408 277.765 51.04C277.397 50.656 277.141 50.2 276.997 49.672C276.869 49.128 276.805 48.52 276.805 47.848V33.952L280.381 33.376V47.128C280.381 47.448 280.405 47.736 280.453 47.992C280.501 48.248 280.589 48.464 280.717 48.64C280.861 48.816 281.061 48.96 281.317 49.072C281.573 49.184 281.917 49.256 282.349 49.288L281.845 52.24ZM287.975 52H284.399V39.376H287.975V52ZM288.311 35.728C288.311 36.384 288.095 36.904 287.663 37.288C287.247 37.656 286.751 37.84 286.175 37.84C285.599 37.84 285.095 37.656 284.663 37.288C284.247 36.904 284.039 36.384 284.039 35.728C284.039 35.072 284.247 34.56 284.663 34.192C285.095 33.808 285.599 33.616 286.175 33.616C286.751 33.616 287.247 33.808 287.663 34.192C288.095 34.56 288.311 35.072 288.311 35.728ZM294.912 43.936C295.264 43.552 295.624 43.152 295.992 42.736C296.376 42.32 296.744 41.912 297.096 41.512C297.448 41.096 297.776 40.704 298.08 40.336C298.4 39.968 298.672 39.648 298.896 39.376H303.144C302.296 40.352 301.464 41.288 300.648 42.184C299.848 43.064 298.968 43.976 298.008 44.92C298.488 45.352 298.984 45.872 299.496 46.48C300.008 47.072 300.504 47.688 300.984 48.328C301.464 48.968 301.904 49.608 302.304 50.248C302.704 50.888 303.04 51.472 303.312 52H299.208C298.952 51.584 298.656 51.128 298.32 50.632C298 50.12 297.656 49.616 297.288 49.12C296.92 48.608 296.528 48.12 296.112 47.656C295.712 47.192 295.312 46.8 294.912 46.48V52H291.336V33.952L294.912 33.376V43.936ZM309.824 49.504C310.176 49.504 310.512 49.496 310.832 49.48C311.152 49.464 311.408 49.44 311.6 49.408V46.696C311.456 46.664 311.24 46.632 310.952 46.6C310.664 46.568 310.4 46.552 310.16 46.552C309.824 46.552 309.504 46.576 309.2 46.624C308.912 46.656 308.656 46.728 308.432 46.84C308.208 46.952 308.032 47.104 307.904 47.296C307.776 47.488 307.712 47.728 307.712 48.016C307.712 48.576 307.896 48.968 308.264 49.192C308.648 49.4 309.168 49.504 309.824 49.504ZM309.536 39.04C310.592 39.04 311.472 39.16 312.176 39.4C312.88 39.64 313.44 39.984 313.856 40.432C314.288 40.88 314.592 41.424 314.768 42.064C314.944 42.704 315.032 43.416 315.032 44.2V51.64C314.52 51.752 313.808 51.88 312.896 52.024C311.984 52.184 310.88 52.264 309.584 52.264C308.768 52.264 308.024 52.192 307.352 52.048C306.696 51.904 306.128 51.672 305.648 51.352C305.168 51.016 304.8 50.584 304.544 50.056C304.288 49.528 304.16 48.88 304.16 48.112C304.16 47.376 304.304 46.752 304.592 46.24C304.896 45.728 305.296 45.32 305.792 45.016C306.288 44.712 306.856 44.496 307.496 44.368C308.136 44.224 308.8 44.152 309.488 44.152C309.952 44.152 310.36 44.176 310.712 44.224C311.08 44.256 311.376 44.304 311.6 44.368V44.032C311.6 43.424 311.416 42.936 311.048 42.568C310.68 42.2 310.04 42.016 309.128 42.016C308.52 42.016 307.92 42.064 307.328 42.16C306.736 42.24 306.224 42.36 305.792 42.52L305.336 39.64C305.544 39.576 305.8 39.512 306.104 39.448C306.424 39.368 306.768 39.304 307.136 39.256C307.504 39.192 307.888 39.144 308.288 39.112C308.704 39.064 309.12 39.04 309.536 39.04ZM321.89 49.432C322.546 49.432 323.01 49.368 323.282 49.24C323.554 49.112 323.69 48.864 323.69 48.496C323.69 48.208 323.514 47.96 323.162 47.752C322.81 47.528 322.274 47.28 321.554 47.008C320.994 46.8 320.482 46.584 320.018 46.36C319.57 46.136 319.186 45.872 318.866 45.568C318.546 45.248 318.298 44.872 318.122 44.44C317.946 44.008 317.858 43.488 317.858 42.88C317.858 41.696 318.298 40.76 319.178 40.072C320.058 39.384 321.266 39.04 322.802 39.04C323.57 39.04 324.306 39.112 325.01 39.256C325.714 39.384 326.274 39.528 326.69 39.688L326.066 42.472C325.65 42.328 325.194 42.2 324.698 42.088C324.218 41.976 323.674 41.92 323.066 41.92C321.946 41.92 321.386 42.232 321.386 42.856C321.386 43 321.41 43.128 321.458 43.24C321.506 43.352 321.602 43.464 321.746 43.576C321.89 43.672 322.082 43.784 322.322 43.912C322.578 44.024 322.898 44.152 323.282 44.296C324.066 44.584 324.714 44.872 325.226 45.16C325.738 45.432 326.138 45.736 326.426 46.072C326.73 46.392 326.938 46.752 327.05 47.152C327.178 47.552 327.242 48.016 327.242 48.544C327.242 49.792 326.77 50.736 325.826 51.376C324.898 52.016 323.578 52.336 321.866 52.336C320.746 52.336 319.81 52.24 319.058 52.048C318.322 51.856 317.81 51.696 317.522 51.568L318.122 48.664C318.73 48.904 319.354 49.096 319.994 49.24C320.634 49.368 321.266 49.432 321.89 49.432ZM333.49 52H329.914V39.376H333.49V52ZM333.826 35.728C333.826 36.384 333.61 36.904 333.178 37.288C332.762 37.656 332.266 37.84 331.69 37.84C331.114 37.84 330.61 37.656 330.178 37.288C329.762 36.904 329.554 36.384 329.554 35.728C329.554 35.072 329.762 34.56 330.178 34.192C330.61 33.808 331.114 33.616 331.69 33.616C332.266 33.616 332.762 33.808 333.178 34.192C333.61 34.56 333.826 35.072 333.826 35.728ZM347.394 49.144C347.922 49.144 348.354 49.104 348.69 49.024C349.042 48.928 349.322 48.808 349.53 48.664C349.738 48.504 349.882 48.32 349.962 48.112C350.042 47.904 350.082 47.672 350.082 47.416C350.082 46.872 349.826 46.424 349.314 46.072C348.802 45.704 347.922 45.312 346.674 44.896C346.13 44.704 345.586 44.488 345.042 44.248C344.498 43.992 344.01 43.68 343.578 43.312C343.146 42.928 342.794 42.472 342.521 41.944C342.25 41.4 342.114 40.744 342.114 39.976C342.114 39.208 342.258 38.52 342.546 37.912C342.834 37.288 343.242 36.76 343.77 36.328C344.298 35.896 344.938 35.568 345.69 35.344C346.442 35.104 347.29 34.984 348.234 34.984C349.354 34.984 350.322 35.104 351.138 35.344C351.954 35.584 352.626 35.848 353.154 36.136L352.074 39.088C351.61 38.848 351.09 38.64 350.514 38.464C349.954 38.272 349.274 38.176 348.474 38.176C347.578 38.176 346.93 38.304 346.53 38.56C346.146 38.8 345.954 39.176 345.954 39.688C345.954 39.992 346.026 40.248 346.17 40.456C346.314 40.664 346.514 40.856 346.77 41.032C347.042 41.192 347.346 41.344 347.682 41.488C348.034 41.616 348.418 41.752 348.834 41.896C349.698 42.216 350.45 42.536 351.09 42.856C351.73 43.16 352.258 43.52 352.674 43.936C353.106 44.352 353.426 44.84 353.634 45.4C353.842 45.96 353.946 46.64 353.946 47.44C353.946 48.992 353.402 50.2 352.314 51.064C351.226 51.912 349.586 52.336 347.394 52.336C346.658 52.336 345.994 52.288 345.402 52.192C344.81 52.112 344.282 52.008 343.818 51.88C343.37 51.752 342.978 51.616 342.642 51.472C342.322 51.328 342.05 51.192 341.826 51.064L342.882 48.088C343.378 48.36 343.986 48.608 344.706 48.832C345.442 49.04 346.338 49.144 347.394 49.144ZM363.522 45.304C363.522 44.152 363.37 43.336 363.066 42.856C362.778 42.376 362.274 42.136 361.554 42.136C361.33 42.136 361.098 42.152 360.858 42.184C360.618 42.2 360.386 42.224 360.162 42.256V52H356.586V39.808C356.89 39.728 357.242 39.648 357.642 39.568C358.058 39.472 358.49 39.392 358.938 39.328C359.402 39.248 359.874 39.192 360.354 39.16C360.834 39.112 361.306 39.088 361.77 39.088C362.682 39.088 363.418 39.208 363.978 39.448C364.554 39.672 365.026 39.944 365.394 40.264C365.906 39.896 366.49 39.608 367.146 39.4C367.818 39.192 368.434 39.088 368.994 39.088C370.002 39.088 370.826 39.232 371.466 39.52C372.122 39.792 372.642 40.184 373.026 40.696C373.41 41.208 373.674 41.816 373.818 42.52C373.962 43.224 374.034 44.008 374.034 44.872V52H370.458V45.304C370.458 44.152 370.306 43.336 370.002 42.856C369.714 42.376 369.21 42.136 368.49 42.136C368.298 42.136 368.026 42.184 367.674 42.28C367.338 42.376 367.058 42.496 366.834 42.64C366.946 43.008 367.018 43.4 367.05 43.816C367.082 44.216 367.098 44.648 367.098 45.112V52H363.522V45.304ZM382.106 49.504C382.458 49.504 382.794 49.496 383.114 49.48C383.434 49.464 383.69 49.44 383.882 49.408V46.696C383.738 46.664 383.522 46.632 383.234 46.6C382.946 46.568 382.682 46.552 382.442 46.552C382.106 46.552 381.786 46.576 381.482 46.624C381.194 46.656 380.938 46.728 380.714 46.84C380.49 46.952 380.314 47.104 380.186 47.296C380.058 47.488 379.994 47.728 379.994 48.016C379.994 48.576 380.178 48.968 380.546 49.192C380.93 49.4 381.45 49.504 382.106 49.504ZM381.818 39.04C382.874 39.04 383.754 39.16 384.458 39.4C385.162 39.64 385.722 39.984 386.138 40.432C386.57 40.88 386.874 41.424 387.05 42.064C387.226 42.704 387.314 43.416 387.314 44.2V51.64C386.802 51.752 386.09 51.88 385.178 52.024C384.266 52.184 383.162 52.264 381.866 52.264C381.05 52.264 380.306 52.192 379.634 52.048C378.978 51.904 378.41 51.672 377.93 51.352C377.45 51.016 377.082 50.584 376.826 50.056C376.57 49.528 376.442 48.88 376.442 48.112C376.442 47.376 376.586 46.752 376.874 46.24C377.178 45.728 377.578 45.32 378.074 45.016C378.57 44.712 379.138 44.496 379.778 44.368C380.418 44.224 381.082 44.152 381.77 44.152C382.234 44.152 382.642 44.176 382.994 44.224C383.362 44.256 383.658 44.304 383.882 44.368V44.032C383.882 43.424 383.698 42.936 383.33 42.568C382.962 42.2 382.322 42.016 381.41 42.016C380.802 42.016 380.202 42.064 379.61 42.16C379.018 42.24 378.506 42.36 378.074 42.52L377.618 39.64C377.826 39.576 378.082 39.512 378.386 39.448C378.706 39.368 379.05 39.304 379.418 39.256C379.786 39.192 380.17 39.144 380.57 39.112C380.986 39.064 381.402 39.04 381.818 39.04ZM398.155 42.544C397.835 42.464 397.459 42.384 397.027 42.304C396.595 42.208 396.131 42.16 395.635 42.16C395.411 42.16 395.139 42.184 394.819 42.232C394.515 42.264 394.283 42.304 394.123 42.352V52H390.547V40.048C391.187 39.824 391.939 39.616 392.803 39.424C393.683 39.216 394.659 39.112 395.731 39.112C395.923 39.112 396.155 39.128 396.427 39.16C396.699 39.176 396.971 39.208 397.243 39.256C397.515 39.288 397.787 39.336 398.059 39.4C398.331 39.448 398.563 39.512 398.755 39.592L398.155 42.544ZM400.552 36.232L404.128 35.656V39.376H408.424V42.352H404.128V46.792C404.128 47.544 404.256 48.144 404.512 48.592C404.784 49.04 405.32 49.264 406.12 49.264C406.504 49.264 406.896 49.232 407.296 49.168C407.712 49.088 408.088 48.984 408.424 48.856L408.928 51.64C408.496 51.816 408.016 51.968 407.488 52.096C406.96 52.224 406.312 52.288 405.544 52.288C404.568 52.288 403.76 52.16 403.12 51.904C402.48 51.632 401.968 51.264 401.584 50.8C401.2 50.32 400.928 49.744 400.768 49.072C400.624 48.4 400.552 47.656 400.552 46.84V36.232ZM417.342 52V35.368H428.574V38.512H421.086V41.776H427.734V44.848H421.086V48.856H429.126V52H417.342ZM430.775 45.688C430.775 44.776 430.919 43.92 431.207 43.12C431.511 42.304 431.943 41.6 432.503 41.008C433.063 40.4 433.743 39.92 434.543 39.568C435.343 39.216 436.255 39.04 437.279 39.04C437.951 39.04 438.567 39.104 439.127 39.232C439.687 39.344 440.231 39.512 440.759 39.736L440.015 42.592C439.679 42.464 439.311 42.352 438.911 42.256C438.511 42.16 438.063 42.112 437.567 42.112C436.511 42.112 435.719 42.44 435.191 43.096C434.679 43.752 434.423 44.616 434.423 45.688C434.423 46.824 434.663 47.704 435.143 48.328C435.639 48.952 436.495 49.264 437.711 49.264C438.143 49.264 438.607 49.224 439.103 49.144C439.599 49.064 440.055 48.936 440.471 48.76L440.975 51.688C440.559 51.864 440.039 52.016 439.415 52.144C438.791 52.272 438.103 52.336 437.351 52.336C436.199 52.336 435.207 52.168 434.375 51.832C433.543 51.48 432.855 51.008 432.311 50.416C431.783 49.824 431.391 49.128 431.135 48.328C430.895 47.512 430.775 46.632 430.775 45.688ZM454.574 45.664C454.574 46.656 454.43 47.568 454.142 48.4C453.854 49.216 453.438 49.92 452.894 50.512C452.35 51.088 451.694 51.536 450.926 51.856C450.174 52.176 449.326 52.336 448.382 52.336C447.454 52.336 446.606 52.176 445.838 51.856C445.086 51.536 444.438 51.088 443.894 50.512C443.35 49.92 442.926 49.216 442.622 48.4C442.318 47.568 442.166 46.656 442.166 45.664C442.166 44.672 442.318 43.768 442.622 42.952C442.942 42.136 443.374 41.44 443.918 40.864C444.478 40.288 445.134 39.84 445.886 39.52C446.654 39.2 447.486 39.04 448.382 39.04C449.294 39.04 450.126 39.2 450.878 39.52C451.646 39.84 452.302 40.288 452.846 40.864C453.39 41.44 453.814 42.136 454.118 42.952C454.422 43.768 454.574 44.672 454.574 45.664ZM450.926 45.664C450.926 44.56 450.702 43.696 450.254 43.072C449.822 42.432 449.198 42.112 448.382 42.112C447.566 42.112 446.934 42.432 446.486 43.072C446.038 43.696 445.814 44.56 445.814 45.664C445.814 46.768 446.038 47.648 446.486 48.304C446.934 48.944 447.566 49.264 448.382 49.264C449.198 49.264 449.822 48.944 450.254 48.304C450.702 47.648 450.926 46.768 450.926 45.664ZM457.344 39.808C457.952 39.632 458.736 39.472 459.696 39.328C460.656 39.168 461.664 39.088 462.72 39.088C463.792 39.088 464.68 39.232 465.384 39.52C466.104 39.792 466.672 40.184 467.088 40.696C467.504 41.208 467.8 41.816 467.976 42.52C468.152 43.224 468.24 44.008 468.24 44.872V52H464.664V45.304C464.664 44.152 464.512 43.336 464.208 42.856C463.904 42.376 463.336 42.136 462.504 42.136C462.248 42.136 461.976 42.152 461.688 42.184C461.4 42.2 461.144 42.224 460.92 42.256V52H457.344V39.808ZM483.285 45.664C483.285 46.656 483.141 47.568 482.853 48.4C482.565 49.216 482.149 49.92 481.605 50.512C481.061 51.088 480.405 51.536 479.637 51.856C478.885 52.176 478.037 52.336 477.093 52.336C476.165 52.336 475.317 52.176 474.549 51.856C473.797 51.536 473.149 51.088 472.605 50.512C472.061 49.92 471.637 49.216 471.333 48.4C471.029 47.568 470.877 46.656 470.877 45.664C470.877 44.672 471.029 43.768 471.333 42.952C471.653 42.136 472.085 41.44 472.629 40.864C473.189 40.288 473.845 39.84 474.597 39.52C475.365 39.2 476.197 39.04 477.093 39.04C478.005 39.04 478.837 39.2 479.589 39.52C480.357 39.84 481.013 40.288 481.557 40.864C482.101 41.44 482.525 42.136 482.829 42.952C483.133 43.768 483.285 44.672 483.285 45.664ZM479.637 45.664C479.637 44.56 479.413 43.696 478.965 43.072C478.533 42.432 477.909 42.112 477.093 42.112C476.277 42.112 475.645 42.432 475.197 43.072C474.749 43.696 474.525 44.56 474.525 45.664C474.525 46.768 474.749 47.648 475.197 48.304C475.645 48.944 476.277 49.264 477.093 49.264C477.909 49.264 478.533 48.944 478.965 48.304C479.413 47.648 479.637 46.768 479.637 45.664ZM492.991 45.304C492.991 44.152 492.839 43.336 492.535 42.856C492.247 42.376 491.743 42.136 491.023 42.136C490.799 42.136 490.567 42.152 490.327 42.184C490.087 42.2 489.855 42.224 489.631 42.256V52H486.055V39.808C486.359 39.728 486.711 39.648 487.111 39.568C487.527 39.472 487.959 39.392 488.407 39.328C488.871 39.248 489.343 39.192 489.823 39.16C490.303 39.112 490.775 39.088 491.239 39.088C492.151 39.088 492.887 39.208 493.447 39.448C494.023 39.672 494.495 39.944 494.863 40.264C495.375 39.896 495.959 39.608 496.615 39.4C497.287 39.192 497.903 39.088 498.463 39.088C499.471 39.088 500.295 39.232 500.935 39.52C501.591 39.792 502.111 40.184 502.495 40.696C502.879 41.208 503.143 41.816 503.287 42.52C503.431 43.224 503.503 44.008 503.503 44.872V52H499.927V45.304C499.927 44.152 499.775 43.336 499.471 42.856C499.183 42.376 498.679 42.136 497.959 42.136C497.767 42.136 497.495 42.184 497.143 42.28C496.807 42.376 496.527 42.496 496.303 42.64C496.415 43.008 496.487 43.4 496.519 43.816C496.551 44.216 496.567 44.648 496.567 45.112V52H492.991V45.304ZM517.583 39.376C516.863 41.808 516.111 44.088 515.327 46.216C514.543 48.344 513.687 50.408 512.759 52.408C512.423 53.128 512.087 53.736 511.751 54.232C511.415 54.744 511.047 55.16 510.647 55.48C510.247 55.816 509.791 56.056 509.279 56.2C508.783 56.36 508.199 56.44 507.527 56.44C506.967 56.44 506.447 56.384 505.967 56.272C505.503 56.176 505.119 56.064 504.815 55.936L505.439 53.08C505.807 53.208 506.135 53.296 506.423 53.344C506.711 53.392 507.015 53.416 507.335 53.416C507.975 53.416 508.463 53.24 508.799 52.888C509.151 52.552 509.447 52.08 509.687 51.472C508.871 49.872 508.055 48.08 507.239 46.096C506.423 44.096 505.655 41.856 504.935 39.376H508.727C508.887 40 509.071 40.68 509.279 41.416C509.503 42.136 509.735 42.872 509.975 43.624C510.215 44.36 510.455 45.08 510.695 45.784C510.951 46.488 511.191 47.128 511.415 47.704C511.623 47.128 511.839 46.488 512.063 45.784C512.287 45.08 512.503 44.36 512.711 43.624C512.935 42.872 513.143 42.136 513.335 41.416C513.543 40.68 513.727 40 513.887 39.376H517.583ZM523.172 39.664C523.172 40.96 523.124 42.168 523.028 43.288C522.932 44.408 522.804 45.544 522.644 46.696H519.908C519.748 45.544 519.612 44.408 519.5 43.288C519.404 42.168 519.356 40.96 519.356 39.664V35.368H523.172V39.664ZM523.484 50.104C523.484 50.808 523.252 51.352 522.788 51.736C522.34 52.12 521.828 52.312 521.252 52.312C520.676 52.312 520.156 52.12 519.692 51.736C519.244 51.352 519.02 50.808 519.02 50.104C519.02 49.4 519.244 48.856 519.692 48.472C520.156 48.088 520.676 47.896 521.252 47.896C521.828 47.896 522.34 48.088 522.788 48.472C523.252 48.856 523.484 49.4 523.484 50.104Z" fill="white"/>
<path d="M35.0068 74.3408C35.0068 74.9333 34.8587 75.4391 34.5625 75.8584C34.2708 76.2731 33.8607 76.5898 33.332 76.8086C32.8034 77.0273 32.1813 77.1367 31.4658 77.1367C31.0876 77.1367 30.7298 77.1185 30.3926 77.082C30.0553 77.0456 29.7454 76.9932 29.4629 76.9248C29.1803 76.8564 28.932 76.7721 28.7178 76.6719V75.5576C29.0596 75.6989 29.4766 75.8311 29.9688 75.9541C30.4609 76.0726 30.9759 76.1318 31.5137 76.1318C32.015 76.1318 32.4388 76.0658 32.7852 75.9336C33.1315 75.7969 33.3936 75.6032 33.5713 75.3525C33.7536 75.0973 33.8447 74.792 33.8447 74.4365C33.8447 74.0947 33.7695 73.8099 33.6191 73.582C33.4688 73.3496 33.2181 73.14 32.8672 72.9531C32.5208 72.7617 32.0469 72.5589 31.4453 72.3447C31.0215 72.1943 30.6478 72.0303 30.3242 71.8525C30.0007 71.6702 29.7295 71.4652 29.5107 71.2373C29.292 71.0094 29.1257 70.7451 29.0117 70.4443C28.9023 70.1436 28.8477 69.7995 28.8477 69.4121C28.8477 68.8789 28.9821 68.4232 29.251 68.0449C29.5244 67.6621 29.9004 67.3704 30.3789 67.1699C30.862 66.9648 31.4157 66.8623 32.04 66.8623C32.5732 66.8623 33.0654 66.9124 33.5166 67.0127C33.9723 67.113 34.3893 67.2474 34.7676 67.416L34.4053 68.4141C34.0452 68.2637 33.6624 68.1383 33.2568 68.0381C32.8558 67.9378 32.4411 67.8877 32.0127 67.8877C31.5843 67.8877 31.222 67.9515 30.9258 68.0791C30.6341 68.2021 30.4108 68.3776 30.2559 68.6055C30.1009 68.8333 30.0234 69.1045 30.0234 69.4189C30.0234 69.7699 30.0964 70.0615 30.2422 70.2939C30.3926 70.5264 30.6296 70.7337 30.9531 70.916C31.2812 71.0938 31.7142 71.2806 32.252 71.4766C32.8398 71.6908 33.3389 71.9186 33.749 72.1602C34.1592 72.3971 34.4714 72.6888 34.6855 73.0352C34.8997 73.377 35.0068 73.8122 35.0068 74.3408ZM38.0146 69.5078V77H36.8799V69.5078H38.0146ZM37.4609 66.7051C37.6478 66.7051 37.8073 66.7666 37.9395 66.8896C38.0762 67.0081 38.1445 67.195 38.1445 67.4502C38.1445 67.7008 38.0762 67.8877 37.9395 68.0107C37.8073 68.1338 37.6478 68.1953 37.4609 68.1953C37.265 68.1953 37.1009 68.1338 36.9688 68.0107C36.8411 67.8877 36.7773 67.7008 36.7773 67.4502C36.7773 67.195 36.8411 67.0081 36.9688 66.8896C37.1009 66.7666 37.265 66.7051 37.4609 66.7051ZM41.5625 77H40.4209V66.3633H41.5625V77ZM46.7646 69.3848C47.6579 69.3848 48.321 69.5853 48.7539 69.9863C49.1868 70.3874 49.4033 71.0277 49.4033 71.9072V77H48.5762L48.3574 75.8926H48.3027C48.0931 76.166 47.8743 76.3962 47.6465 76.583C47.4186 76.7653 47.1543 76.9043 46.8535 77C46.5573 77.0911 46.1927 77.1367 45.7598 77.1367C45.304 77.1367 44.8984 77.057 44.543 76.8975C44.1921 76.738 43.9141 76.4964 43.709 76.1729C43.5085 75.8493 43.4082 75.4391 43.4082 74.9424C43.4082 74.195 43.7044 73.6208 44.2969 73.2197C44.8893 72.8187 45.7917 72.5999 47.0039 72.5635L48.2959 72.5088V72.0508C48.2959 71.4036 48.1569 70.9502 47.8789 70.6904C47.6009 70.4307 47.209 70.3008 46.7031 70.3008C46.3112 70.3008 45.9375 70.3577 45.582 70.4717C45.2266 70.5856 44.8893 70.7201 44.5703 70.875L44.2217 70.0137C44.5589 69.8405 44.9463 69.6924 45.3838 69.5693C45.8213 69.4463 46.2816 69.3848 46.7646 69.3848ZM48.2822 73.3086L47.1406 73.3564C46.2064 73.3929 45.5479 73.5456 45.165 73.8145C44.7822 74.0833 44.5908 74.4639 44.5908 74.9561C44.5908 75.3844 44.7207 75.7012 44.9805 75.9062C45.2402 76.1113 45.5843 76.2139 46.0127 76.2139C46.6781 76.2139 47.2227 76.0293 47.6465 75.6602C48.0703 75.291 48.2822 74.7373 48.2822 73.999V73.3086ZM52.8691 66.3633V71.8867C52.8691 72.069 52.8623 72.2923 52.8486 72.5566C52.835 72.8164 52.8236 73.0465 52.8145 73.2471H52.8623C52.958 73.1286 53.097 72.9531 53.2793 72.7207C53.4661 72.4883 53.6234 72.3014 53.751 72.1602L56.2393 69.5078H57.5723L54.5576 72.707L57.791 77H56.4238L53.7783 73.4521L52.8691 74.2861V77H51.7412V66.3633H52.8691ZM61.8994 69.3848C62.7926 69.3848 63.4557 69.5853 63.8887 69.9863C64.3216 70.3874 64.5381 71.0277 64.5381 71.9072V77H63.7109L63.4922 75.8926H63.4375C63.2279 76.166 63.0091 76.3962 62.7812 76.583C62.5534 76.7653 62.2891 76.9043 61.9883 77C61.6921 77.0911 61.3275 77.1367 60.8945 77.1367C60.4388 77.1367 60.0332 77.057 59.6777 76.8975C59.3268 76.738 59.0488 76.4964 58.8438 76.1729C58.6432 75.8493 58.543 75.4391 58.543 74.9424C58.543 74.195 58.8392 73.6208 59.4316 73.2197C60.0241 72.8187 60.9264 72.5999 62.1387 72.5635L63.4307 72.5088V72.0508C63.4307 71.4036 63.2917 70.9502 63.0137 70.6904C62.7357 70.4307 62.3438 70.3008 61.8379 70.3008C61.446 70.3008 61.0723 70.3577 60.7168 70.4717C60.3613 70.5856 60.0241 70.7201 59.7051 70.875L59.3564 70.0137C59.6937 69.8405 60.0811 69.6924 60.5186 69.5693C60.9561 69.4463 61.4163 69.3848 61.8994 69.3848ZM63.417 73.3086L62.2754 73.3564C61.3411 73.3929 60.6826 73.5456 60.2998 73.8145C59.917 74.0833 59.7256 74.4639 59.7256 74.9561C59.7256 75.3844 59.8555 75.7012 60.1152 75.9062C60.375 76.1113 60.7191 76.2139 61.1475 76.2139C61.8128 76.2139 62.3574 76.0293 62.7812 75.6602C63.2051 75.291 63.417 74.7373 63.417 73.999V73.3086ZM70.4238 69.3711C71.3125 69.3711 71.9847 69.5898 72.4404 70.0273C72.8962 70.4603 73.124 71.1576 73.124 72.1191V77H72.0029V72.1943C72.0029 71.57 71.8594 71.1029 71.5723 70.793C71.2897 70.4831 70.8545 70.3281 70.2666 70.3281C69.4372 70.3281 68.8538 70.5628 68.5166 71.0322C68.1794 71.5016 68.0107 72.1829 68.0107 73.0762V77H66.876V69.5078H67.792L67.9629 70.5879H68.0244C68.1839 70.3236 68.3867 70.1025 68.6328 69.9248C68.8789 69.7425 69.1546 69.6058 69.46 69.5146C69.7653 69.4189 70.0866 69.3711 70.4238 69.3711ZM82.6191 69.3711C83.5534 69.3711 84.2985 69.6924 84.8545 70.335C85.4105 70.9775 85.6885 71.9437 85.6885 73.2334C85.6885 74.0856 85.5609 74.8011 85.3057 75.3799C85.0505 75.9587 84.6904 76.3962 84.2256 76.6924C83.7653 76.9886 83.2207 77.1367 82.5918 77.1367C82.1953 77.1367 81.8467 77.0843 81.5459 76.9795C81.2451 76.8747 80.9876 76.7334 80.7734 76.5557C80.5592 76.3779 80.3815 76.1842 80.2402 75.9746H80.1582C80.1719 76.1523 80.1878 76.3665 80.2061 76.6172C80.2288 76.8678 80.2402 77.0866 80.2402 77.2734V80.3496H79.0986V69.5078H80.0352L80.1855 70.6152H80.2402C80.3861 70.3874 80.5638 70.18 80.7734 69.9932C80.9831 69.8018 81.2383 69.6514 81.5391 69.542C81.8444 69.4281 82.2044 69.3711 82.6191 69.3711ZM82.4209 70.3281C81.9014 70.3281 81.4821 70.4284 81.1631 70.6289C80.8486 70.8294 80.6185 71.1302 80.4727 71.5312C80.3268 71.9277 80.2493 72.4268 80.2402 73.0283V73.2471C80.2402 73.8805 80.3086 74.416 80.4453 74.8535C80.5866 75.291 80.8167 75.6237 81.1357 75.8516C81.4593 76.0794 81.8923 76.1934 82.4346 76.1934C82.8994 76.1934 83.2868 76.068 83.5967 75.8174C83.9066 75.5667 84.1367 75.2181 84.2871 74.7715C84.4421 74.3203 84.5195 73.8031 84.5195 73.2197C84.5195 72.3356 84.3464 71.6338 84 71.1143C83.6582 70.5902 83.1318 70.3281 82.4209 70.3281ZM88.8057 69.5078V77H87.6709V69.5078H88.8057ZM88.252 66.7051C88.4388 66.7051 88.5983 66.7666 88.7305 66.8896C88.8672 67.0081 88.9355 67.195 88.9355 67.4502C88.9355 67.7008 88.8672 67.8877 88.7305 68.0107C88.5983 68.1338 88.4388 68.1953 88.252 68.1953C88.056 68.1953 87.8919 68.1338 87.7598 68.0107C87.6322 67.8877 87.5684 67.7008 87.5684 67.4502C87.5684 67.195 87.6322 67.0081 87.7598 66.8896C87.8919 66.7666 88.056 66.7051 88.252 66.7051ZM92.3535 77H91.2119V66.3633H92.3535V77ZM95.8877 69.5078V77H94.7529V69.5078H95.8877ZM95.334 66.7051C95.5208 66.7051 95.6803 66.7666 95.8125 66.8896C95.9492 67.0081 96.0176 67.195 96.0176 67.4502C96.0176 67.7008 95.9492 67.8877 95.8125 68.0107C95.6803 68.1338 95.5208 68.1953 95.334 68.1953C95.138 68.1953 94.974 68.1338 94.8418 68.0107C94.7142 67.8877 94.6504 67.7008 94.6504 67.4502C94.6504 67.195 94.7142 67.0081 94.8418 66.8896C94.974 66.7666 95.138 66.7051 95.334 66.7051ZM99.4287 66.3633V69.542C99.4287 69.7243 99.4242 69.9089 99.415 70.0957C99.4059 70.278 99.39 70.4466 99.3672 70.6016H99.4424C99.5973 70.3372 99.7933 70.1162 100.03 69.9385C100.272 69.7562 100.545 69.6195 100.851 69.5283C101.156 69.4326 101.479 69.3848 101.821 69.3848C102.423 69.3848 102.924 69.4805 103.325 69.6719C103.731 69.8633 104.034 70.1595 104.234 70.5605C104.439 70.9616 104.542 71.4811 104.542 72.1191V77H103.421V72.1943C103.421 71.57 103.277 71.1029 102.99 70.793C102.708 70.4831 102.272 70.3281 101.685 70.3281C101.129 70.3281 100.684 70.4352 100.352 70.6494C100.023 70.859 99.7865 71.1689 99.6406 71.5791C99.4993 71.9893 99.4287 72.4906 99.4287 73.083V77H98.2939V66.3633H99.4287ZM118.651 69.3711C119.476 69.3711 120.098 69.5876 120.518 70.0205C120.937 70.4489 121.146 71.1393 121.146 72.0918V77H120.025V72.1465C120.025 71.5404 119.893 71.0869 119.629 70.7861C119.369 70.4808 118.982 70.3281 118.467 70.3281C117.742 70.3281 117.216 70.5378 116.888 70.957C116.56 71.3763 116.396 71.9938 116.396 72.8096V77H115.268V72.1465C115.268 71.7409 115.208 71.4036 115.09 71.1348C114.976 70.8659 114.803 70.6654 114.57 70.5332C114.342 70.3965 114.053 70.3281 113.702 70.3281C113.205 70.3281 112.807 70.4307 112.506 70.6357C112.205 70.8408 111.986 71.1462 111.85 71.5518C111.717 71.9528 111.651 72.4473 111.651 73.0352V77H110.517V69.5078H111.433L111.604 70.5674H111.665C111.815 70.3076 112.005 70.0889 112.232 69.9111C112.46 69.7334 112.715 69.599 112.998 69.5078C113.281 69.4167 113.581 69.3711 113.9 69.3711C114.47 69.3711 114.946 69.4782 115.329 69.6924C115.716 69.902 115.997 70.2233 116.17 70.6562H116.231C116.478 70.2233 116.815 69.902 117.243 69.6924C117.672 69.4782 118.141 69.3711 118.651 69.3711ZM126.362 69.3711C127 69.3711 127.547 69.5124 128.003 69.7949C128.459 70.0775 128.807 70.474 129.049 70.9844C129.29 71.4902 129.411 72.0827 129.411 72.7617V73.4658H124.236C124.25 74.3454 124.469 75.0153 124.893 75.4756C125.316 75.9359 125.913 76.166 126.684 76.166C127.158 76.166 127.577 76.1227 127.941 76.0361C128.306 75.9495 128.684 75.8219 129.076 75.6533V76.6514C128.698 76.82 128.322 76.943 127.948 77.0205C127.579 77.098 127.142 77.1367 126.636 77.1367C125.916 77.1367 125.287 76.9909 124.749 76.6992C124.216 76.403 123.801 75.9701 123.505 75.4004C123.209 74.8307 123.061 74.1335 123.061 73.3086C123.061 72.502 123.195 71.8047 123.464 71.2168C123.737 70.6243 124.12 70.1686 124.612 69.8496C125.109 69.5306 125.692 69.3711 126.362 69.3711ZM126.349 70.3008C125.743 70.3008 125.259 70.499 124.899 70.8955C124.539 71.292 124.325 71.8457 124.257 72.5566H128.222C128.217 72.11 128.146 71.7181 128.01 71.3809C127.878 71.0391 127.675 70.7747 127.401 70.5879C127.128 70.3965 126.777 70.3008 126.349 70.3008ZM134.887 69.3711C135.775 69.3711 136.448 69.5898 136.903 70.0273C137.359 70.4603 137.587 71.1576 137.587 72.1191V77H136.466V72.1943C136.466 71.57 136.322 71.1029 136.035 70.793C135.753 70.4831 135.317 70.3281 134.729 70.3281C133.9 70.3281 133.317 70.5628 132.979 71.0322C132.642 71.5016 132.474 72.1829 132.474 73.0762V77H131.339V69.5078H132.255L132.426 70.5879H132.487C132.647 70.3236 132.85 70.1025 133.096 69.9248C133.342 69.7425 133.618 69.6058 133.923 69.5146C134.228 69.4189 134.549 69.3711 134.887 69.3711ZM146.111 69.5078V77H145.182L145.018 75.9473H144.956C144.801 76.207 144.601 76.4258 144.354 76.6035C144.108 76.7812 143.83 76.9134 143.521 77C143.215 77.0911 142.889 77.1367 142.543 77.1367C141.951 77.1367 141.454 77.041 141.053 76.8496C140.652 76.6582 140.349 76.362 140.144 75.9609C139.943 75.5599 139.843 75.0449 139.843 74.416V69.5078H140.991V74.334C140.991 74.9583 141.132 75.4255 141.415 75.7354C141.698 76.0407 142.128 76.1934 142.707 76.1934C143.263 76.1934 143.705 76.0885 144.033 75.8789C144.366 75.6693 144.605 75.3617 144.751 74.9561C144.897 74.5459 144.97 74.0446 144.97 73.4521V69.5078H146.111ZM155.668 69.3711C156.602 69.3711 157.347 69.6924 157.903 70.335C158.459 70.9775 158.737 71.9437 158.737 73.2334C158.737 74.0856 158.61 74.8011 158.354 75.3799C158.099 75.9587 157.739 76.3962 157.274 76.6924C156.814 76.9886 156.27 77.1367 155.641 77.1367C155.244 77.1367 154.896 77.0843 154.595 76.9795C154.294 76.8747 154.036 76.7334 153.822 76.5557C153.608 76.3779 153.43 76.1842 153.289 75.9746H153.207C153.221 76.1523 153.237 76.3665 153.255 76.6172C153.278 76.8678 153.289 77.0866 153.289 77.2734V80.3496H152.147V69.5078H153.084L153.234 70.6152H153.289C153.435 70.3874 153.613 70.18 153.822 69.9932C154.032 69.8018 154.287 69.6514 154.588 69.542C154.893 69.4281 155.253 69.3711 155.668 69.3711ZM155.47 70.3281C154.95 70.3281 154.531 70.4284 154.212 70.6289C153.897 70.8294 153.667 71.1302 153.521 71.5312C153.376 71.9277 153.298 72.4268 153.289 73.0283V73.2471C153.289 73.8805 153.357 74.416 153.494 74.8535C153.635 75.291 153.866 75.6237 154.185 75.8516C154.508 76.0794 154.941 76.1934 155.483 76.1934C155.948 76.1934 156.336 76.068 156.646 75.8174C156.955 75.5667 157.186 75.2181 157.336 74.7715C157.491 74.3203 157.568 73.8031 157.568 73.2197C157.568 72.3356 157.395 71.6338 157.049 71.1143C156.707 70.5902 156.181 70.3281 155.47 70.3281ZM163.522 69.3848C164.416 69.3848 165.079 69.5853 165.512 69.9863C165.945 70.3874 166.161 71.0277 166.161 71.9072V77H165.334L165.115 75.8926H165.061C164.851 76.166 164.632 76.3962 164.404 76.583C164.176 76.7653 163.912 76.9043 163.611 77C163.315 77.0911 162.951 77.1367 162.518 77.1367C162.062 77.1367 161.656 77.057 161.301 76.8975C160.95 76.738 160.672 76.4964 160.467 76.1729C160.266 75.8493 160.166 75.4391 160.166 74.9424C160.166 74.195 160.462 73.6208 161.055 73.2197C161.647 72.8187 162.549 72.5999 163.762 72.5635L165.054 72.5088V72.0508C165.054 71.4036 164.915 70.9502 164.637 70.6904C164.359 70.4307 163.967 70.3008 163.461 70.3008C163.069 70.3008 162.695 70.3577 162.34 70.4717C161.984 70.5856 161.647 70.7201 161.328 70.875L160.979 70.0137C161.317 69.8405 161.704 69.6924 162.142 69.5693C162.579 69.4463 163.039 69.3848 163.522 69.3848ZM165.04 73.3086L163.898 73.3564C162.964 73.3929 162.306 73.5456 161.923 73.8145C161.54 74.0833 161.349 74.4639 161.349 74.9561C161.349 75.3844 161.479 75.7012 161.738 75.9062C161.998 76.1113 162.342 76.2139 162.771 76.2139C163.436 76.2139 163.98 76.0293 164.404 75.6602C164.828 75.291 165.04 74.7373 165.04 73.999V73.3086ZM171.165 77.1367C170.217 77.1367 169.465 76.8132 168.909 76.166C168.358 75.5189 168.082 74.5573 168.082 73.2812C168.082 71.9915 168.365 71.0186 168.93 70.3623C169.495 69.7015 170.247 69.3711 171.186 69.3711C171.582 69.3711 171.928 69.4235 172.225 69.5283C172.521 69.6331 172.776 69.7744 172.99 69.9521C173.204 70.1253 173.384 70.3236 173.53 70.5469H173.612C173.594 70.4056 173.576 70.2119 173.558 69.9658C173.539 69.7197 173.53 69.5192 173.53 69.3643V66.3633H174.665V77H173.749L173.578 75.9336H173.53C173.389 76.1569 173.209 76.3597 172.99 76.542C172.776 76.7243 172.519 76.8701 172.218 76.9795C171.922 77.0843 171.571 77.1367 171.165 77.1367ZM171.343 76.1934C172.145 76.1934 172.712 75.9655 173.045 75.5098C173.378 75.054 173.544 74.3773 173.544 73.4795V73.2744C173.544 72.3219 173.384 71.5905 173.065 71.0801C172.751 70.5697 172.177 70.3145 171.343 70.3145C170.646 70.3145 170.124 70.5833 169.777 71.1211C169.431 71.6543 169.258 72.3835 169.258 73.3086C169.258 74.2292 169.429 74.9401 169.771 75.4414C170.117 75.9427 170.641 76.1934 171.343 76.1934ZM179.874 69.3848C180.767 69.3848 181.43 69.5853 181.863 69.9863C182.296 70.3874 182.513 71.0277 182.513 71.9072V77H181.686L181.467 75.8926H181.412C181.202 76.166 180.984 76.3962 180.756 76.583C180.528 76.7653 180.264 76.9043 179.963 77C179.667 77.0911 179.302 77.1367 178.869 77.1367C178.413 77.1367 178.008 77.057 177.652 76.8975C177.301 76.738 177.023 76.4964 176.818 76.1729C176.618 75.8493 176.518 75.4391 176.518 74.9424C176.518 74.195 176.814 73.6208 177.406 73.2197C177.999 72.8187 178.901 72.5999 180.113 72.5635L181.405 72.5088V72.0508C181.405 71.4036 181.266 70.9502 180.988 70.6904C180.71 70.4307 180.318 70.3008 179.812 70.3008C179.421 70.3008 179.047 70.3577 178.691 70.4717C178.336 70.5856 177.999 70.7201 177.68 70.875L177.331 70.0137C177.668 69.8405 178.056 69.6924 178.493 69.5693C178.931 69.4463 179.391 69.3848 179.874 69.3848ZM181.392 73.3086L180.25 73.3564C179.316 73.3929 178.657 73.5456 178.274 73.8145C177.892 74.0833 177.7 74.4639 177.7 74.9561C177.7 75.3844 177.83 75.7012 178.09 75.9062C178.35 76.1113 178.694 76.2139 179.122 76.2139C179.787 76.2139 180.332 76.0293 180.756 75.6602C181.18 75.291 181.392 74.7373 181.392 73.999V73.3086ZM193.334 74.9492C193.334 75.4277 193.213 75.8311 192.972 76.1592C192.735 76.4827 192.393 76.7266 191.946 76.8906C191.504 77.0547 190.976 77.1367 190.36 77.1367C189.836 77.1367 189.383 77.0957 189 77.0137C188.617 76.9316 188.282 76.8154 187.995 76.665V75.6191C188.3 75.7695 188.665 75.9062 189.089 76.0293C189.513 76.1523 189.946 76.2139 190.388 76.2139C191.035 76.2139 191.504 76.109 191.796 75.8994C192.088 75.6898 192.233 75.4049 192.233 75.0449C192.233 74.8398 192.174 74.6598 192.056 74.5049C191.942 74.3454 191.748 74.1927 191.475 74.0469C191.201 73.8965 190.823 73.7324 190.34 73.5547C189.861 73.3724 189.447 73.1924 189.096 73.0146C188.749 72.8324 188.48 72.6113 188.289 72.3516C188.102 72.0918 188.009 71.7546 188.009 71.3398C188.009 70.7064 188.264 70.221 188.774 69.8838C189.289 69.542 189.964 69.3711 190.798 69.3711C191.249 69.3711 191.671 69.4167 192.062 69.5078C192.459 69.5944 192.828 69.7129 193.17 69.8633L192.787 70.7725C192.477 70.6403 192.147 70.5286 191.796 70.4375C191.445 70.3464 191.087 70.3008 190.723 70.3008C190.199 70.3008 189.795 70.3874 189.513 70.5605C189.235 70.7337 189.096 70.9707 189.096 71.2715C189.096 71.5039 189.16 71.6953 189.287 71.8457C189.419 71.9961 189.629 72.1374 189.916 72.2695C190.203 72.4017 190.581 72.5566 191.051 72.7344C191.52 72.9076 191.926 73.0876 192.268 73.2744C192.609 73.4567 192.871 73.68 193.054 73.9443C193.241 74.2041 193.334 74.5391 193.334 74.9492ZM196.294 69.5078V77H195.159V69.5078H196.294ZM195.74 66.7051C195.927 66.7051 196.087 66.7666 196.219 66.8896C196.355 67.0081 196.424 67.195 196.424 67.4502C196.424 67.7008 196.355 67.8877 196.219 68.0107C196.087 68.1338 195.927 68.1953 195.74 68.1953C195.544 68.1953 195.38 68.1338 195.248 68.0107C195.12 67.8877 195.057 67.7008 195.057 67.4502C195.057 67.195 195.12 67.0081 195.248 66.8896C195.38 66.7666 195.544 66.7051 195.74 66.7051ZM201.366 77.1367C200.418 77.1367 199.666 76.8132 199.11 76.166C198.559 75.5189 198.283 74.5573 198.283 73.2812C198.283 71.9915 198.566 71.0186 199.131 70.3623C199.696 69.7015 200.448 69.3711 201.387 69.3711C201.783 69.3711 202.13 69.4235 202.426 69.5283C202.722 69.6331 202.977 69.7744 203.191 69.9521C203.406 70.1253 203.586 70.3236 203.731 70.5469H203.813C203.795 70.4056 203.777 70.2119 203.759 69.9658C203.741 69.7197 203.731 69.5192 203.731 69.3643V66.3633H204.866V77H203.95L203.779 75.9336H203.731C203.59 76.1569 203.41 76.3597 203.191 76.542C202.977 76.7243 202.72 76.8701 202.419 76.9795C202.123 77.0843 201.772 77.1367 201.366 77.1367ZM201.544 76.1934C202.346 76.1934 202.913 75.9655 203.246 75.5098C203.579 75.054 203.745 74.3773 203.745 73.4795V73.2744C203.745 72.3219 203.586 71.5905 203.267 71.0801C202.952 70.5697 202.378 70.3145 201.544 70.3145C200.847 70.3145 200.325 70.5833 199.979 71.1211C199.632 71.6543 199.459 72.3835 199.459 73.3086C199.459 74.2292 199.63 74.9401 199.972 75.4414C200.318 75.9427 200.842 76.1934 201.544 76.1934ZM210.157 69.3711C210.795 69.3711 211.342 69.5124 211.798 69.7949C212.254 70.0775 212.602 70.474 212.844 70.9844C213.085 71.4902 213.206 72.0827 213.206 72.7617V73.4658H208.031C208.045 74.3454 208.264 75.0153 208.688 75.4756C209.111 75.9359 209.708 76.166 210.479 76.166C210.952 76.166 211.372 76.1227 211.736 76.0361C212.101 75.9495 212.479 75.8219 212.871 75.6533V76.6514C212.493 76.82 212.117 76.943 211.743 77.0205C211.374 77.098 210.937 77.1367 210.431 77.1367C209.711 77.1367 209.082 76.9909 208.544 76.6992C208.011 76.403 207.596 75.9701 207.3 75.4004C207.004 74.8307 206.855 74.1335 206.855 73.3086C206.855 72.502 206.99 71.8047 207.259 71.2168C207.532 70.6243 207.915 70.1686 208.407 69.8496C208.904 69.5306 209.487 69.3711 210.157 69.3711ZM210.144 70.3008C209.537 70.3008 209.054 70.499 208.694 70.8955C208.334 71.292 208.12 71.8457 208.052 72.5566H212.017C212.012 72.11 211.941 71.7181 211.805 71.3809C211.673 71.0391 211.47 70.7747 211.196 70.5879C210.923 70.3965 210.572 70.3008 210.144 70.3008ZM216.269 66.3633V69.0225C216.269 69.3278 216.259 69.624 216.241 69.9111C216.228 70.1982 216.216 70.4215 216.207 70.5811H216.269C216.474 70.2438 216.77 69.959 217.157 69.7266C217.545 69.4941 218.039 69.3779 218.641 69.3779C219.579 69.3779 220.327 69.7038 220.883 70.3555C221.443 71.0026 221.724 71.9665 221.724 73.2471C221.724 74.0902 221.596 74.8011 221.341 75.3799C221.086 75.9587 220.726 76.3962 220.261 76.6924C219.796 76.9886 219.247 77.1367 218.613 77.1367C218.021 77.1367 217.533 77.0273 217.15 76.8086C216.772 76.5853 216.48 76.3141 216.275 75.9951H216.187L215.954 77H215.134V66.3633H216.269ZM218.456 70.3281C217.914 70.3281 217.483 70.4352 217.164 70.6494C216.845 70.859 216.615 71.1781 216.474 71.6064C216.337 72.0303 216.269 72.568 216.269 73.2197V73.2812C216.269 74.2246 216.426 74.9469 216.74 75.4482C217.055 75.945 217.627 76.1934 218.456 76.1934C219.153 76.1934 219.675 75.9382 220.021 75.4277C220.372 74.9173 220.548 74.1882 220.548 73.2402C220.548 72.2741 220.375 71.5472 220.028 71.0596C219.687 70.5719 219.162 70.3281 218.456 70.3281ZM226.509 69.3848C227.402 69.3848 228.065 69.5853 228.498 69.9863C228.931 70.3874 229.147 71.0277 229.147 71.9072V77H228.32L228.102 75.8926H228.047C227.837 76.166 227.618 76.3962 227.391 76.583C227.163 76.7653 226.898 76.9043 226.598 77C226.301 77.0911 225.937 77.1367 225.504 77.1367C225.048 77.1367 224.643 77.057 224.287 76.8975C223.936 76.738 223.658 76.4964 223.453 76.1729C223.253 75.8493 223.152 75.4391 223.152 74.9424C223.152 74.195 223.449 73.6208 224.041 73.2197C224.633 72.8187 225.536 72.5999 226.748 72.5635L228.04 72.5088V72.0508C228.04 71.4036 227.901 70.9502 227.623 70.6904C227.345 70.4307 226.953 70.3008 226.447 70.3008C226.055 70.3008 225.682 70.3577 225.326 70.4717C224.971 70.5856 224.633 70.7201 224.314 70.875L223.966 70.0137C224.303 69.8405 224.69 69.6924 225.128 69.5693C225.565 69.4463 226.026 69.3848 226.509 69.3848ZM228.026 73.3086L226.885 73.3564C225.951 73.3929 225.292 73.5456 224.909 73.8145C224.526 74.0833 224.335 74.4639 224.335 74.9561C224.335 75.3844 224.465 75.7012 224.725 75.9062C224.984 76.1113 225.328 76.2139 225.757 76.2139C226.422 76.2139 226.967 76.0293 227.391 75.6602C227.814 75.291 228.026 74.7373 228.026 73.999V73.3086ZM234.89 69.3711C235.04 69.3711 235.197 69.3802 235.361 69.3984C235.525 69.4121 235.671 69.4326 235.799 69.46L235.655 70.5127C235.532 70.4808 235.396 70.4557 235.245 70.4375C235.095 70.4193 234.953 70.4102 234.821 70.4102C234.521 70.4102 234.236 70.4717 233.967 70.5947C233.702 70.7132 233.47 70.8864 233.27 71.1143C233.069 71.3376 232.912 71.6087 232.798 71.9277C232.684 72.2422 232.627 72.5931 232.627 72.9805V77H231.485V69.5078H232.429L232.552 70.8887H232.6C232.755 70.6107 232.941 70.3577 233.16 70.1299C233.379 69.8975 233.632 69.7129 233.919 69.5762C234.211 69.4395 234.534 69.3711 234.89 69.3711ZM237.043 76.2891C237.043 75.9701 237.12 75.7445 237.275 75.6123C237.43 75.4756 237.619 75.4072 237.843 75.4072C238.075 75.4072 238.271 75.4756 238.431 75.6123C238.59 75.7445 238.67 75.9701 238.67 76.2891C238.67 76.6035 238.59 76.8337 238.431 76.9795C238.271 77.1208 238.075 77.1914 237.843 77.1914C237.619 77.1914 237.43 77.1208 237.275 76.9795C237.12 76.8337 237.043 76.6035 237.043 76.2891Z" fill="#F1F3F5"/>
</g>
<defs>
<filter id="filter0_i_66_23316" x="64" y="-96" width="1438" height="1416" filterUnits="userSpaceOnUse" color-interpolation-filters="sRGB">
<feFlood flood-opacity="0" result="BackgroundImageFix"/>
<feBlend mode="normal" in="SourceGraphic" in2="BackgroundImageFix" result="shape"/>
<feColorMatrix in="SourceAlpha" type="matrix" values="0 0 0 0 0 0 0 0 0 0 0 0 0 0 0 0 0 0 127 0" result="hardAlpha"/>
<feMorphology radius="24" operator="erode" in="SourceAlpha" result="effect1_innerShadow_66_23316"/>
<feOffset dx="24" dy="32"/>
<feGaussianBlur stdDeviation="92"/>
<feComposite in2="hardAlpha" operator="arithmetic" k2="-1" k3="1"/>
<feColorMatrix type="matrix" values="0 0 0 0 0.168627 0 0 0 0 0.541176 0 0 0 0 0.243137 0 0 0 0.7 0"/>
<feBlend mode="normal" in2="shape" result="effect1_innerShadow_66_23316"/>
</filter>
<filter id="filter1_i_66_23316" x="241.672" y="-67" width="1694.33" height="1667.38" filterUnits="userSpaceOnUse" color-interpolation-filters="sRGB">
<feFlood flood-opacity="0" result="BackgroundImageFix"/>
<feBlend mode="normal" in="SourceGraphic" in2="BackgroundImageFix" result="shape"/>
<feColorMatrix in="SourceAlpha" type="matrix" values="0 0 0 0 0 0 0 0 0 0 0 0 0 0 0 0 0 0 127 0" result="hardAlpha"/>
<feOffset dx="24" dy="32"/>
<feGaussianBlur stdDeviation="92"/>
<feComposite in2="hardAlpha" operator="arithmetic" k2="-1" k3="1"/>
<feColorMatrix type="matrix" values="0 0 0 0 0.168627 0 0 0 0 0.541176 0 0 0 0 0.243137 0 0 0 0.7 0"/>
<feBlend mode="normal" in2="shape" result="effect1_innerShadow_66_23316"/>
</filter>
<radialGradient id="paint0_radial_66_23316" cx="0" cy="0" r="1" gradientUnits="userSpaceOnUse" gradientTransform="translate(900 56) rotate(89.9999) scale(169.037 653.121)">
<stop stop-color="#37B24D"/>
<stop offset="1" stop-color="#37B24D"/>
</radialGradient>
<clipPath id="clip0_66_23316">
<path d="M0 8C0 3.58172 3.58172 0 8 0H1792C1796.42 0 1800 3.58172 1800 8V104C1800 108.418 1796.42 112 1792 112H7.99996C3.58168 112 0 108.418 0 104V8Z" fill="white"/>
</clipPath>
</defs>
</svg>
