<svg width="16" height="16" viewBox="0 0 16 16" fill="none" xmlns="http://www.w3.org/2000/svg">
<path d="M14.4961 13.2492C13.5631 11.6423 12.069 10.4371 10.3011 9.86526C11.148 9.36131 11.8061 8.59326 12.1743 7.67906C12.5425 6.76487 12.6003 5.75509 12.339 4.80482C12.0777 3.85456 11.5116 3.01636 10.7277 2.41898C9.94389 1.82159 8.9856 1.49805 8.00006 1.49805C7.01452 1.49805 6.05623 1.82159 5.27238 2.41898C4.48853 3.01636 3.92247 3.85456 3.66114 4.80482C3.39981 5.75509 3.45767 6.76487 3.82582 7.67906C4.19398 8.59326 4.85208 9.36131 5.69903 9.86526C3.93116 10.437 2.43709 11.6422 1.50411 13.249C1.46014 13.3251 1.43695 13.4113 1.43689 13.4991C1.43683 13.5869 1.45989 13.6732 1.50376 13.7492C1.54763 13.8253 1.61075 13.8885 1.68678 13.9324C1.76282 13.9763 1.84908 13.9994 1.93688 13.9994L14.0633 13.9996C14.1511 13.9996 14.2374 13.9765 14.3134 13.9325C14.3895 13.8886 14.4526 13.8254 14.4965 13.7494C14.5403 13.6733 14.5634 13.587 14.5633 13.4992C14.5633 13.4114 14.5401 13.3252 14.4961 13.2492L14.4961 13.2492Z" fill="#E03131"/>
</svg>
